<?xml version="1.0" encoding="UTF-8"?>
<svg version="1.1" xmlns="http://www.w3.org/2000/svg" width="50" height="73">
<path d="M0 0 C0.33 0 0.66 0 1 0 C1 8.25 1 16.5 1 25 C8.59 25 16.18 25 24 25 C23.09462757 29.52686216 22.06379984 32.11479827 19.90234375 36.0859375 C19.59201202 36.6606076 19.2816803 37.23527771 18.96194458 37.82736206 C17.95982589 39.67991847 16.94876076 41.52742094 15.9375 43.375 C15.25056215 44.64124452 14.56428373 45.907847 13.87866211 47.17480469 C12.53364265 49.65880473 11.18564146 52.1411442 9.83496094 54.62207031 C7.55484662 58.81947075 5.30322189 63.03147898 3.0625 67.25 C2.45535156 68.38953125 1.84820313 69.5290625 1.22265625 70.703125 C0.81917969 71.46109375 0.41570313 72.2190625 0 73 C-0.33 73 -0.66 73 -1 73 C-1 66.07 -1 59.14 -1 52 C-9.25 52 -17.5 52 -26 52 C-24.47182742 47.41548227 -22.80549852 43.39423449 -20.5859375 39.16015625 C-20.25260406 38.51614365 -19.91927063 37.87213104 -19.57583618 37.20860291 C-18.5129462 35.15776694 -17.44399633 33.11015835 -16.375 31.0625 C-15.68060978 29.72350419 -14.9865965 28.38431282 -14.29296875 27.04492188 C-9.59753482 17.99309987 -4.81598464 8.98816858 0 0 Z " fill="#B1FF01" transform="translate(26,0)"/>
</svg>
