<?xml version="1.0" encoding="UTF-8"?>
<svg version="1.1" xmlns="http://www.w3.org/2000/svg" width="1762" height="325">
<path d="M0 0 C176.57142857 0 176.57142857 0 218 20 C218.33 13.4 218.66 6.8 219 0 C288.15452656 -0.27386809 357.30911281 -0.52860132 426.46403503 -0.67749023 C427.4873956 -0.67969915 428.51075617 -0.68190806 429.56512766 -0.68418391 C451.80500902 -0.73206939 474.04489615 -0.77639245 496.28479188 -0.81704527 C507.19108323 -0.83700282 518.09737302 -0.85774766 529.00366211 -0.87890625 C530.63163054 -0.88204447 530.63163054 -0.88204447 532.29248723 -0.88524608 C567.47663505 -0.95343925 602.660372 -1.07362831 637.84427086 -1.22075553 C673.9975132 -1.37166179 710.15052812 -1.47016336 746.30408009 -1.50263984 C751.40939776 -1.50725038 756.51471466 -1.51246057 761.62003136 -1.51803589 C762.6248401 -1.51911466 763.62964885 -1.52019342 764.66490635 -1.52130488 C780.84587956 -1.54021951 797.02614999 -1.61444616 813.20683649 -1.70931254 C829.47034341 -1.80348573 845.733153 -1.83949409 861.99692307 -1.81602204 C871.66259996 -1.80384318 881.3257266 -1.83636656 890.99094334 -1.93276069 C897.4477014 -1.99276133 903.90278983 -1.99462428 910.3596632 -1.94930902 C914.03992997 -1.92514254 917.7153779 -1.92616081 921.39512727 -1.99813092 C942.72108786 -2.39234819 942.72108786 -2.39234819 948.27779411 1.66191602 C952.33175225 5.90253582 954.8126832 10.59664358 957 16 C957.8971875 14.2675 957.8971875 14.2675 958.8125 12.5 C959.31716797 11.52546875 959.31716797 11.52546875 959.83203125 10.53125 C961.41378571 7.10323364 962.67438724 3.53496735 964 0 C1047.82 0 1131.64 0 1218 0 C1223.625 13.5 1223.625 13.5 1225.49536133 18.41113281 C1226.13399109 20.08393311 1226.13399109 20.08393311 1226.78552246 21.79052734 C1227.21337036 22.91668457 1227.64121826 24.0428418 1228.08203125 25.203125 C1228.48981812 26.27224121 1228.89760498 27.34135742 1229.31774902 28.44287109 C1230.81801843 32.37781151 1232.31507911 36.31397471 1233.8125 40.25 C1237.174375 49.0775 1240.53625 57.905 1244 67 C1244.33 44.89 1244.66 22.78 1245 0 C1266.35960146 -0.06802199 1287.71911367 -0.12315795 1309.07879639 -0.15543652 C1318.99902252 -0.17083001 1328.919176 -0.19177357 1338.83935547 -0.22631836 C1347.49736174 -0.25645324 1356.15531534 -0.27562943 1364.81337261 -0.28226548 C1369.3872347 -0.28613747 1373.96094625 -0.29507509 1378.53475952 -0.31719017 C1402.60151651 -0.42899315 1426.17228121 -0.06718786 1449.625 6.0625 C1450.65882812 6.31837891 1451.69265625 6.57425781 1452.7578125 6.83789062 C1457.57490881 8.0452685 1462.31822411 9.33021986 1467 11 C1467.33 7.37 1467.66 3.74 1468 0 C1565.02 0 1662.04 0 1762 0 C1762 56.43 1762 112.86 1762 171 C1740.55 171 1719.1 171 1697 171 C1697 218.52 1697 266.04 1697 315 C1136.99 315 576.98 315 0 315 C0 211.05 0 107.1 0 0 Z " fill="#000100" transform="translate(0,0)"/>
<path d="M0 0 C141.57 0 283.14 0 429 0 C427.59896571 4.20310288 426.40831923 7.37196479 424.33984375 11.1484375 C423.80262695 12.13650391 423.26541016 13.12457031 422.71191406 14.14257812 C422.12635742 15.20927734 421.54080078 16.27597656 420.9375 17.375 C419.65927113 19.72608763 418.38194971 22.07765205 417.10546875 24.4296875 C416.77149078 25.04394592 416.43751282 25.65820435 416.09341431 26.29107666 C412.26589788 33.33607595 408.50677372 40.41710181 404.75 47.5 C404.03746612 48.84213897 403.32490077 50.18426124 402.61230469 51.52636719 C398.84705142 58.6202518 395.09055668 65.71873038 391.33984375 72.8203125 C389.78930899 75.75533863 388.23849241 78.69021569 386.6875 81.625 C386.30650146 82.34607941 385.92550293 83.06715881 385.53295898 83.81008911 C380.54533269 93.24568947 375.48963167 102.63893805 370.34570312 111.99047852 C365.75085211 120.38055506 361.357306 128.87303593 356.98144531 137.37866211 C353.0727436 144.97091788 349.05036254 152.47789815 345 160 C436.41 160 527.82 160 622 160 C610.42935367 187.7695512 610.42935367 187.7695512 606.46484375 197.02734375 C605.79045006 198.60425743 605.79045006 198.60425743 605.10243225 200.21302795 C604.17835741 202.3725056 603.25367965 204.53172536 602.32836914 206.69067383 C600.9044412 210.01467201 599.48442887 213.34032749 598.06445312 216.66601562 C597.15648438 218.7865587 596.24829049 220.9070054 595.33984375 223.02734375 C594.91702621 224.01870834 594.49420868 225.01007294 594.05857849 226.03147888 C593.67049515 226.9349556 593.2824118 227.83843231 592.88256836 228.76928711 C592.54188828 229.56515732 592.20120819 230.36102753 591.85020447 231.18101501 C591 233 591 233 590 234 C586.82321913 234.09918765 583.6681394 234.1317279 580.49091244 234.12304783 C579.47504601 234.12420167 578.45917958 234.12535552 577.41252932 234.12654433 C573.96282407 234.12921938 570.51316425 234.12468157 567.0634613 234.12025452 C564.58359312 234.12069004 562.10372498 234.12156459 559.62385708 234.12284368 C554.2086234 234.12462138 548.79340413 234.12326386 543.37817192 234.11920547 C535.32583529 234.11318743 527.27350561 234.11286809 519.22116715 234.11374746 C505.67794944 234.11506354 492.1347366 234.11171172 478.59152031 234.10573006 C465.17559218 234.09981976 451.75966607 234.09596547 438.34373665 234.09487724 C437.51061097 234.0948085 436.6774853 234.09473976 435.81911339 234.09466894 C431.58835536 234.09433062 427.35759732 234.09402923 423.12683929 234.09374207 C393.13444421 234.09163979 363.14205179 234.08489726 333.1496582 234.07543945 C304.00642918 234.06626001 274.86320088 234.05917395 245.7199707 234.05493164 C244.82217463 234.05480011 243.92437855 234.05466859 242.99937653 234.05453308 C233.9836128 234.05321459 224.96784907 234.05193877 215.95208533 234.05069422 C197.58476115 234.04815778 179.21743702 234.04533652 160.85011292 234.04234314 C160.00555136 234.04220585 159.16098981 234.04206856 158.29083548 234.04192711 C101.86055588 234.03272128 45.43027777 234.01685473 -11 234 C-9.51820083 229.39297594 -7.68421386 225.21490254 -5.39453125 220.9609375 C-5.03880035 220.29122925 -4.68306946 219.621521 -4.31655884 218.93151855 C-3.15296216 216.74362348 -1.98280542 214.55931279 -0.8125 212.375 C0.0061606 210.83890827 0.82443381 209.30261003 1.64233398 207.76611328 C4.08867519 203.17407535 6.5435999 198.58666287 9 194 C9.68071778 192.72789333 10.36138511 191.45575965 11.04199219 190.18359375 C13.48665491 185.61502041 15.93323437 181.04748072 18.38354492 176.48193359 C23.11349015 167.66752085 27.8112684 158.83638458 32.5 150 C37.87837089 139.86560432 43.26931837 129.73817376 48.6875 119.625 C49.21988281 118.63113281 49.75226563 117.63726562 50.30078125 116.61328125 C56.84993775 104.39956996 63.42954292 92.20227744 70 80 C46.9 79.67 23.8 79.34 0 79 C0 52.93 0 26.86 0 0 Z " fill="#B0FE00" transform="translate(390,18)"/>
<path d="M0 0 C163.13813062 0 163.13813062 0 191.09277344 26.91308594 C204.31369675 40.24565674 210.22510725 55.09023727 210.4375 73.8125 C210.31763885 93.04859524 203.9487988 108.39372203 190.74609375 122.34375 C187.9326568 125.06513994 185.03902749 127.53664732 182 130 C183.6762637 135.96670054 186.60000165 141.18671185 189.5 146.625 C193.46025761 154.12651592 197.36101498 161.64803386 201.125 169.25 C204.70019927 176.45874011 208.39718831 183.59193589 212.17138672 190.69824219 C215.95374782 197.84813434 219.56093725 205.08106793 223.15136719 212.32885742 C225.97315139 218.00757078 228.8878354 223.5900491 232.07421875 229.07421875 C233 231 233 231 233 234 C199.67 234 166.34 234 132 234 C129.03 227.4 126.06 220.8 123 214 C121.39312153 210.43825009 119.78581532 206.87672607 118.17578125 203.31640625 C117.78102097 202.44330307 117.38626068 201.57019989 116.97953796 200.67063904 C116.16411417 198.8673751 115.34858925 197.06415688 114.53295898 195.26098633 C113.30207486 192.53944957 112.07193338 189.81757787 110.84179688 187.09570312 C110.03650361 185.31508369 109.23116664 183.53448402 108.42578125 181.75390625 C108.06938065 180.96504532 107.71298004 180.17618439 107.34577942 179.36341858 C104.26609676 172.55850652 101.13040529 165.78254479 98 159 C97.67 184.08 97.34 209.16 97 235 C64.99 235 32.98 235 0 235 C0 157.45 0 79.9 0 0 Z " fill="#B0FD00" transform="translate(21,18)"/>
<path d="M0 0 C164.04463939 0 164.04463939 0 192.48046875 28.34765625 C205.19242532 41.72970045 210.52584343 57.55407575 210.28344727 75.88452148 C209.71840629 94.59910519 202.6840567 111.15039976 189.08984375 124.1171875 C186.7992722 126.18084262 184.4768308 128.16235134 182 130 C183.59164765 135.41432742 186.01271402 140.20909852 188.59375 145.19921875 C189.05289291 146.09516754 189.51203583 146.99111633 189.98509216 147.91421509 C191.4860618 150.84071658 192.99299894 153.76410051 194.5 156.6875 C195.54147837 158.71554313 196.582572 160.74378388 197.62329102 162.7722168 C200.24727867 167.88400266 202.87615619 172.99325299 205.50714111 178.10144043 C206.91144592 180.82806192 208.31504246 183.55504628 209.71826172 186.28222656 C210.14162811 187.10504623 210.56499451 187.92786591 211.00119019 188.77561951 C211.82376581 190.37444253 212.64629674 191.97328854 213.46878052 193.57215881 C215.33135814 197.19261295 217.19508156 200.81246001 219.0625 204.43041992 C221.04976711 208.28282316 223.02818919 212.13966413 225 216 C225.37070618 216.72475525 225.74141235 217.4495105 226.12335205 218.19622803 C227.25492711 220.41361262 228.38030853 222.63403294 229.50390625 224.85546875 C229.85444565 225.54143631 230.20498505 226.22740387 230.56614685 226.93415833 C233 231.77026711 233 231.77026711 233 234 C199.67 234 166.34 234 132 234 C113.42030104 193.35690853 113.42030104 193.35690853 104.37353516 173.0546875 C102.58099618 169.06815218 100.74058443 165.10415083 98.8894043 161.14453125 C98 159 98 159 98 157 C97.34 157 96.68 157 96 157 C96 182.41 96 207.82 96 234 C64.32 234 32.64 234 0 234 C0 156.78 0 79.56 0 0 Z " fill="#B0FE00" transform="translate(1291,18)"/>
<path d="M0 0 C0.85667267 0.00359528 1.71334534 0.00719055 2.59597778 0.01089478 C3.4934523 0.01074875 4.39092682 0.01060272 5.31559753 0.01045227 C8.29702123 0.01115175 11.27838329 0.01894575 14.25979614 0.02676392 C16.32102932 0.02862797 18.38226293 0.03005193 20.4434967 0.03105164 C25.88017999 0.03487779 31.31683675 0.04470891 36.75350952 0.05575562 C42.29661704 0.06596764 47.83972882 0.07054881 53.38284302 0.07559204 C64.26762033 0.08633109 75.15237791 0.10340868 86.03713989 0.12442017 C86.67345005 1.54635354 87.30870649 2.96875847 87.94352722 4.39135742 C88.29740037 5.18340765 88.65127352 5.97545788 89.01587009 6.79150963 C90.43174844 10.02583372 91.71395379 13.30228061 92.97073364 16.60098267 C93.24041458 17.30301315 93.51009552 18.00504364 93.78794861 18.72834778 C94.685877 21.06780628 95.58030005 23.4085877 96.47463989 25.74942017 C97.12714474 27.45220128 97.77981938 29.15491734 98.43264771 30.85757446 C100.24519019 35.58745261 102.05420142 40.31867412 103.86227417 45.05026245 C105.06926962 48.20849091 106.27700257 51.36643655 107.4848938 54.52432251 C117.2516748 80.0608447 126.98917207 105.60842201 136.69296265 131.16894531 C141.30905064 143.32784136 145.93444453 155.48311024 150.57620239 167.63223267 C151.04294373 168.85392151 151.50968506 170.07561035 151.99057007 171.33432007 C154.24119284 177.2244595 156.4929175 183.114175 158.74612427 189.00332642 C161.18281459 195.37461316 163.61250767 201.74853542 166.03713989 208.12442017 C166.46684082 209.25327637 166.89654175 210.38213257 167.33926392 211.54519653 C168.61478729 214.90089532 169.88534381 218.2584311 171.15432739 221.61660767 C171.54556793 222.64488678 171.93680847 223.67316589 172.33990479 224.73260498 C172.6948703 225.6751413 173.04983582 226.61767761 173.41555786 227.58877563 C173.72975677 228.41908295 174.04395569 229.24939026 174.36767578 230.1048584 C175.03713989 232.12442017 175.03713989 232.12442017 175.03713989 234.12442017 C140.71713989 234.12442017 106.39713989 234.12442017 71.03713989 234.12442017 C65.03713989 212.12442017 65.03713989 212.12442017 64.03713989 204.12442017 C45.88713989 204.12442017 27.73713989 204.12442017 9.03713989 204.12442017 C8.37713989 207.09442017 7.71713989 210.06442017 7.03713989 213.12442017 C5.05713989 220.05442017 3.07713989 226.98442017 1.03713989 234.12442017 C-30.64286011 234.12442017 -62.32286011 234.12442017 -94.96286011 234.12442017 C-93.07742482 227.83963589 -91.18490434 221.78714059 -88.81051636 215.70645142 C-88.51431396 214.9389003 -88.21811157 214.17134918 -87.91293335 213.38053894 C-86.95392419 210.89795623 -85.98968871 208.41744084 -85.02536011 205.93692017 C-84.35241028 204.19763204 -83.67980719 202.45820971 -83.00753784 200.71865845 C-81.31591388 196.34390752 -79.62010307 191.97079449 -77.92282104 187.59823608 C-76.47586821 183.86944378 -75.03176273 180.13955069 -73.58786011 176.40957642 C-73.06792729 175.06655677 -72.54798924 173.72353915 -72.02804565 172.38052368 C-71.77856171 171.73608307 -71.52907776 171.09164246 -71.27203369 170.42767334 C-70.52843798 168.50736863 -69.78438784 166.5872405 -69.04025269 164.66714478 C-65.29071226 154.98759341 -61.58114264 145.29342477 -57.89840698 135.58828735 C-56.25703378 131.2655477 -54.60946717 126.94516814 -52.96286011 122.62442017 C-52.66944229 121.85403412 -52.37602448 121.08364807 -52.07371521 120.28991699 C-50.44113203 116.00356298 -48.80786979 111.71747394 -47.17160034 107.43252563 C-43.46673783 97.72608899 -39.78390554 88.01159287 -36.12301636 78.28848267 C-35.70708221 77.18409851 -35.29114807 76.07971436 -34.86260986 74.94186401 C-33.15662369 70.41157431 -31.45087393 65.88119751 -29.74728394 61.3500061 C-24.88774191 48.42721709 -19.98980529 35.52329816 -14.91453552 22.68341064 C-12.4075286 16.32794781 -10.05862507 9.93779183 -7.83786011 3.47598267 C-6.23520626 -0.83114955 -4.34396424 0.00770041 0 0 Z " fill="#B0FE00" transform="translate(1099.9628601074219,17.875579833984375)"/>
<path d="M0 0 C74.91 0 149.82 0 227 0 C227 26.4 227 52.8 227 80 C205.55 80 184.1 80 162 80 C162 130.82 162 181.64 162 234 C129.99 234 97.98 234 65 234 C65 183.18 65 132.36 65 80 C43.55 80 22.1 80 0 80 C0 53.6 0 27.2 0 0 Z " fill="#B0FD00" transform="translate(1514,18)"/>
<path d="M0 0 C0.74325531 -0.02424042 1.48651062 -0.04848083 2.25228882 -0.07345581 C9.14098799 -0.28553713 16.03171018 -0.4098284 22.9228878 -0.50775146 C27.55117292 -0.57464743 32.17486762 -0.6699474 36.80078125 -0.83496094 C41.27635726 -0.9939049 45.74775466 -1.07765558 50.22597122 -1.11053467 C51.92561982 -1.13556881 53.62510719 -1.1865615 55.32313156 -1.26495361 C68.22674825 -1.8333947 68.22674825 -1.8333947 72.683815 1.80834961 C75.97015807 5.36607074 78.49360797 9.31876851 80.86442947 13.5269165 C82.30406029 16.0613543 83.94245197 18.4476725 85.58837891 20.8515625 C86.21486328 21.80546875 86.84134766 22.759375 87.48681641 23.7421875 C91.48489446 29.77312625 95.67163008 35.67786361 99.81420898 41.60986328 C103.00268662 46.17785925 106.18298943 50.74972144 109.31103516 55.359375 C109.81723389 56.10413086 110.32343262 56.84888672 110.8449707 57.61621094 C111.77599075 58.98931063 112.70343484 60.36484408 113.62670898 61.74316406 C115.76286569 65.07870325 115.76286569 65.07870325 118.90087891 67.3515625 C119.02319382 66.63789017 119.14550873 65.92421783 119.27153015 65.18891907 C119.91808023 62.27401202 120.84433895 59.71746644 121.97045898 56.95385742 C122.39792923 55.898936 122.82539948 54.84401459 123.26582336 53.75712585 C123.72933701 52.62684464 124.19285065 51.49656342 124.67041016 50.33203125 C125.1478215 49.15949295 125.62523285 47.98695465 126.11711121 46.77888489 C127.12794652 44.29919772 128.140481 41.82029097 129.15600586 39.3425293 C130.44883903 36.18770832 131.73494342 33.03019898 133.01883411 29.87172985 C134.25357578 26.83632229 135.49341065 23.80299841 136.73291016 20.76953125 C137.41907158 19.08321846 137.41907158 19.08321846 138.11909485 17.36283875 C138.55602158 16.29846085 138.9929483 15.23408295 139.44311523 14.13745117 C140.01150871 12.74776375 140.01150871 12.74776375 140.59138489 11.33000183 C142.22744393 7.60879154 144.08296278 3.98739475 145.90087891 0.3515625 C171.64087891 0.3515625 197.38087891 0.3515625 223.90087891 0.3515625 C217.01317677 18.7187682 217.01317677 18.7187682 213.71337891 26.734375 C213.33755676 27.65300827 212.96173462 28.57164154 212.57452393 29.51811218 C211.76966044 31.48471317 210.96375355 33.45088742 210.15686035 35.41665649 C208.86595271 38.56165203 207.57787892 41.70779534 206.29052734 44.85424805 C204.45241199 49.34666243 202.61341322 53.83871369 200.77392578 58.33056641 C196.36372819 69.10386047 191.96973717 79.88376239 187.57714844 90.66424561 C186.18965034 94.06892416 184.80117731 97.47320384 183.41259766 100.87744141 C182.53876753 103.02110497 181.66506654 105.16482117 180.79150391 107.30859375 C180.37533813 108.32953125 179.95917236 109.35046875 179.53039551 110.40234375 C177.5083648 115.37084212 175.50065882 120.34443363 173.52001953 125.32958984 C172.96238922 126.73249519 172.96238922 126.73249519 172.39349365 128.16374207 C171.69688858 129.92001637 171.00262926 131.67722351 170.31109619 133.4355011 C168.00980933 139.24263208 168.00980933 139.24263208 166.90087891 140.3515625 C164.52134451 140.52087101 162.16906897 140.62550125 159.78588867 140.68725586 C158.66859627 140.72120705 158.66859627 140.72120705 157.5287323 140.75584412 C150.62951636 140.95354918 143.72843363 141.06859796 136.82705784 141.15906429 C132.19119579 141.22078788 127.5593442 141.30912506 122.92553711 141.46264648 C118.44354207 141.6105053 113.96518823 141.68845989 109.48090935 141.71878242 C107.77772422 141.74200428 106.07467941 141.78946017 104.37289619 141.86234856 C91.4136942 142.39183075 91.4136942 142.39183075 87.20972633 138.97843933 C83.73258675 135.17143579 81.33235764 130.87135234 78.90087891 126.3515625 C77.92481134 124.90117783 76.93332895 123.46053028 75.90478516 122.046875 C75.08966151 120.85767561 74.27583557 119.66758556 73.46337891 118.4765625 C72.53109789 117.11587812 71.59880592 115.75520125 70.66650391 114.39453125 C70.20566406 113.72083496 69.74482422 113.04713867 69.27001953 112.35302734 C67.08769802 109.16282197 64.90118509 105.97550816 62.71337891 102.7890625 C62.27912598 102.15524658 61.84487305 101.52143066 61.39746094 100.8684082 C58.53216372 96.69521692 55.63515423 92.54562538 52.72119141 88.40625 C51.99697998 87.37443604 51.27276855 86.34262207 50.52661133 85.27954102 C49.09086551 83.23540932 47.65105478 81.19412542 46.20678711 79.15600586 C45.54767334 78.21635986 44.88855957 77.27671387 44.20947266 76.30859375 C43.32473267 75.05526245 43.32473267 75.05526245 42.42211914 73.77661133 C40.90952554 71.36534633 39.86827086 69.02268384 38.90087891 66.3515625 C35.60065895 69.4316507 33.7617858 73.06780781 31.71337891 77.0390625 C31.3646875 77.70228516 31.01599609 78.36550781 30.65673828 79.04882812 C28.11759632 83.90845132 25.66734664 88.81187104 23.22119141 93.71875 C18.95215202 102.28050182 14.60409973 110.80090465 10.23461914 119.31176758 C8.93842853 121.83768387 7.64523111 124.36511959 6.35205078 126.89257812 C5.52605937 128.50269676 4.69989442 130.11272638 3.87353516 131.72265625 C3.48819107 132.47663193 3.10284698 133.2306076 2.70582581 134.00743103 C0.01526089 139.23718052 0.01526089 139.23718052 -1.09912109 140.3515625 C-3.53308128 140.44654896 -5.93855062 140.47714667 -8.37280273 140.46508789 C-9.51418953 140.46530693 -9.51418953 140.46530693 -10.67863464 140.4655304 C-13.20554408 140.46483112 -15.73238071 140.45703805 -18.25927734 140.44921875 C-20.00662699 140.44735462 -21.75397716 140.4459307 -23.50132751 140.44493103 C-28.10944044 140.44110543 -32.71752204 140.43127479 -37.32562256 140.42022705 C-42.0242063 140.41001384 -46.72279508 140.4054336 -51.42138672 140.40039062 C-60.64731197 140.38965255 -69.87321393 140.37257563 -79.09912109 140.3515625 C-77.91295243 136.72232859 -76.70683642 133.33661656 -74.91162109 129.96484375 C-74.46987549 129.12775879 -74.02812988 128.29067383 -73.57299805 127.42822266 C-73.08661865 126.5160498 -72.60023926 125.60387695 -72.09912109 124.6640625 C-71.00817292 122.59563421 -69.91840579 120.52658273 -68.82958984 118.45703125 C-67.93506104 116.75812744 -67.93506104 116.75812744 -67.02246094 115.02490234 C-63.44025363 108.19895491 -59.93214202 101.33445043 -56.41162109 94.4765625 C-55.6376758 92.96993892 -54.86366819 91.46334735 -54.08959961 89.95678711 C-52.91724995 87.67505584 -51.74492559 85.39331167 -50.57279968 83.11146545 C-45.8734457 73.96361442 -41.16291368 64.82152512 -36.45092773 55.68017578 C-35.75421714 54.32845806 -35.0575212 52.97673279 -34.36083984 51.625 C-34.0157991 50.95554352 -33.67075836 50.28608704 -33.31526184 49.59634399 C-31.07669654 45.25189024 -28.8416672 40.9056327 -26.60877991 36.55825806 C-25.06195477 33.54686248 -23.51405873 30.53601793 -21.96609497 27.52520752 C-21.23287712 26.09835649 -20.50017382 24.6712409 -19.76803589 23.24383545 C-7.96043574 0.22438584 -7.96043574 0.22438584 0 0 Z " fill="#AFFD00" transform="translate(850.09912109375,17.6484375)"/>
<path d="M0 0 C31.68 0 63.36 0 96 0 C96 77.22 96 154.44 96 234 C64.32 234 32.64 234 0 234 C0 156.78 0 79.56 0 0 Z " fill="#B0FE00" transform="translate(265,18)"/>
<path d="M0 0 C0.66 0 1.32 0 2 0 C2 25.08 2 50.16 2 76 C25.1 76 48.2 76 72 76 C70.56559271 80.30322187 69.22066662 83.76869061 67.1640625 87.71875 C66.60074219 88.80414063 66.03742188 89.88953125 65.45703125 91.0078125 C64.85246094 92.16023438 64.24789062 93.31265625 63.625 94.5 C62.99074194 95.71607101 62.35662931 96.93221789 61.72265625 98.1484375 C57.42710444 106.36927711 53.01584329 114.52362437 48.54150391 122.6484375 C44.57717889 129.8729585 40.77399621 137.17452243 37 144.5 C32.27983384 153.66172707 27.45003345 162.74840081 22.47753906 171.77539062 C18.62413737 178.79417826 14.92187917 185.88480606 11.25 193 C6.70888962 201.79756017 2.04483783 210.48016814 -3 219 C-3.33 219 -3.66 219 -4 219 C-4 198.87 -4 178.74 -4 158 C-29.74 158 -55.48 158 -82 158 C-79.74982865 151.24948595 -79.74982865 151.24948595 -78.14453125 148.2421875 C-77.7774707 147.54931641 -77.41041016 146.85644531 -77.03222656 146.14257812 C-76.6297168 145.39427734 -76.22720703 144.64597656 -75.8125 143.875 C-75.3803418 143.06224609 -74.94818359 142.24949219 -74.50292969 141.41210938 C-73.00787851 138.60486248 -71.50490219 135.80197798 -70 133 C-69.43522949 131.94844727 -68.87045898 130.89689453 -68.28857422 129.81347656 C-67.69705566 128.71229492 -67.10553711 127.61111328 -66.49609375 126.4765625 C-65.56512329 124.74291266 -64.63415528 123.0092615 -63.70336914 121.2755127 C-63.06492686 120.08650592 -62.42625292 118.89762351 -61.78735352 117.7088623 C-57.04847538 108.88838808 -52.40031256 100.02527988 -47.8125 91.125 C-43.68105007 83.11005601 -39.47938242 75.14604493 -35.125 67.25 C-29.89143898 57.75837203 -24.91802254 48.14410291 -19.97463989 38.49951172 C-14.97688812 28.75328976 -9.85850695 19.08671085 -4.54101562 9.50976562 C-4.08533203 8.68669922 -3.62964844 7.86363281 -3.16015625 7.015625 C-2.56666382 5.95263184 -2.56666382 5.95263184 -1.96118164 4.86816406 C-0.86960352 2.86353238 -0.86960352 2.86353238 0 0 Z " fill="#030400" transform="translate(603,20)"/>
<path d="M0 0 C0.33 0 0.66 0 1 0 C1 10.23 1 20.46 1 31 C20.47 31 39.94 31 60 31 C59.08894658 35.5552671 57.93583336 38.50806422 55.88891602 42.61035156 C55.57011475 43.25321106 55.25131348 43.89607056 54.92285156 44.55841064 C53.87253435 46.6721979 52.81354803 48.78149863 51.75390625 50.890625 C51.01990735 52.36064417 50.28626477 53.83084131 49.55296326 55.3012085 C48.01763807 58.37627526 46.47800529 61.44913583 44.93530273 64.52050781 C42.95538523 68.46320952 40.98633534 72.41122298 39.02044773 76.36093521 C37.50894795 79.39475491 35.99176384 82.4257033 34.47282219 85.45580292 C33.7442078 86.91102699 33.0173828 88.36714839 32.29236031 89.82416534 C31.2808338 91.85480795 30.26173414 93.88146351 29.24047852 95.90722656 C28.66169449 97.06240784 28.08291046 98.21758911 27.48658752 99.40777588 C26 102 26 102 24 103 C24 95.74 24 88.48 24 81 C2.55 81 -18.9 81 -41 81 C-30.83214653 59.53453157 -30.83214653 59.53453157 -26.4375 51.3125 C-20.58613615 40.24003889 -14.99084319 29.04636084 -9.43139648 17.82543945 C-8.93536171 16.82707817 -8.93536171 16.82707817 -8.42930603 15.80854797 C-7.52866058 13.99559679 -6.63045399 12.1814346 -5.73242188 10.3671875 C-3.9197473 6.84401842 -1.98957364 3.42564049 0 0 Z " fill="#EEA239" transform="translate(589,80)"/>
<path d="M0 0 C19.75 0 19.75 0 27.625 7.5 C29.7742792 12.9708925 29.72343262 18.20515709 29 24 C26.2601947 30.00649624 21.90191731 32.83923308 15.875 35.25 C12 36 12 36 0 36 C0 24.12 0 12.24 0 0 Z " fill="#040600" transform="translate(1387,86)"/>
<path d="M0 0 C17.13592233 0 17.13592233 0 23 4 C25.4375 6.5 25.4375 6.5 27 9 C27.4125 9.598125 27.825 10.19625 28.25 10.8125 C30.00655242 15.93577788 29.53258995 20.43231493 27.3125 25.25 C24.28535176 30.68607607 20.75756887 32.69697245 15 35 C10.05 35 5.1 35 0 35 C0 23.45 0 11.9 0 0 Z " fill="#010200" transform="translate(118,86)"/>
<path d="M0 0 C0.66 0 1.32 0 2 0 C5.60029669 15.28863465 9.0080851 30.58013089 12 46 C4.74 46 -2.52 46 -10 46 C-9.35417969 42.98746094 -9.35417969 42.98746094 -8.6953125 39.9140625 C-7.60490419 34.82591752 -6.51636749 29.73738038 -5.4296875 24.6484375 C-4.91145833 22.22395833 -4.39322917 19.79947917 -3.875 17.375 C-3.61074219 16.13621094 -3.34648438 14.89742187 -3.07421875 13.62109375 C-2.82027344 12.43386719 -2.56632812 11.24664062 -2.3046875 10.0234375 C-2.07765137 8.96044434 -1.85061523 7.89745117 -1.61669922 6.80224609 C-1.11506255 4.52283766 -0.58245463 2.25981521 0 0 Z " fill="#060900" transform="translate(1136,117)"/>
</svg>
